<svg width="35" height="37" viewBox="0 0 35 37" fill="none" xmlns="http://www.w3.org/2000/svg">
<path d="M12 33H20" stroke="#6B7280" stroke-width="2" stroke-linecap="round" stroke-linejoin="round"/>
<path d="M7.02514 18.0001C7.02347 16.8146 7.25637 15.6405 7.71042 14.5453C8.16447 13.4502 8.8307 12.4557 9.67074 11.6192C10.5108 10.7826 11.508 10.1205 12.605 9.67105C13.702 9.22156 14.8771 8.99354 16.0626 9.00014C21.0126 9.03764 24.9751 13.1501 24.9751 18.1126V19.0001C24.9751 23.4751 25.9126 26.0751 26.7376 27.5001C26.8253 27.6519 26.8715 27.824 26.8716 27.9993C26.8718 28.1745 26.8259 28.3467 26.7385 28.4986C26.6512 28.6505 26.5254 28.7768 26.3739 28.8648C26.2224 28.9529 26.0504 28.9995 25.8751 29.0001H6.12514C5.9499 28.9995 5.7779 28.9529 5.62637 28.8648C5.47485 28.7768 5.34911 28.6505 5.26176 28.4986C5.1744 28.3467 5.12851 28.1745 5.12866 27.9993C5.12882 27.824 5.17502 27.6519 5.26264 27.5001C6.08764 26.0751 7.02514 23.4751 7.02514 19.0001V18.0001Z" stroke="#6B7280" stroke-width="2" stroke-linecap="round" stroke-linejoin="round"/>
<rect x="15.5" y="0.5" width="19" height="19" rx="9.5" fill="#EF4444"/>
<path d="M24.132 13.106V14H19.476V13.106H21.3V7.46C21.3 7.28 21.306 7.094 21.318 6.902L19.854 8.144C19.798 8.188 19.742 8.216 19.686 8.228C19.63 8.24 19.576 8.242 19.524 8.234C19.476 8.226 19.432 8.21 19.392 8.186C19.356 8.158 19.326 8.13 19.302 8.102L18.936 7.592L21.516 5.366H22.47V13.106H24.132ZM30.8769 12.89C31.0049 12.89 31.1049 12.928 31.1769 13.004C31.2489 13.076 31.2849 13.172 31.2849 13.292V14H25.5009V13.598C25.5009 13.518 25.5169 13.434 25.5489 13.346C25.5809 13.254 25.6349 13.172 25.7109 13.1L28.4349 10.37C28.6629 10.142 28.8689 9.922 29.0529 9.71C29.2369 9.498 29.3929 9.288 29.5209 9.08C29.6489 8.868 29.7469 8.652 29.8149 8.432C29.8869 8.212 29.9229 7.98 29.9229 7.736C29.9229 7.496 29.8849 7.286 29.8089 7.106C29.7329 6.922 29.6289 6.77 29.4969 6.65C29.3649 6.53 29.2089 6.44 29.0289 6.38C28.8489 6.32 28.6549 6.29 28.4469 6.29C28.2389 6.29 28.0469 6.32 27.8709 6.38C27.6989 6.44 27.5449 6.524 27.4089 6.632C27.2729 6.74 27.1589 6.868 27.0669 7.016C26.9749 7.164 26.9089 7.324 26.8689 7.496C26.8129 7.648 26.7409 7.75 26.6529 7.802C26.5689 7.854 26.4449 7.866 26.2809 7.838L25.6689 7.73C25.7249 7.33 25.8349 6.978 25.9989 6.674C26.1629 6.37 26.3689 6.116 26.6169 5.912C26.8649 5.704 27.1489 5.548 27.4689 5.444C27.7929 5.34 28.1409 5.288 28.5129 5.288C28.8889 5.288 29.2349 5.344 29.5509 5.456C29.8709 5.564 30.1469 5.722 30.3789 5.93C30.6109 6.138 30.7929 6.392 30.9249 6.692C31.0569 6.988 31.1229 7.324 31.1229 7.7C31.1229 8.02 31.0749 8.318 30.9789 8.594C30.8869 8.866 30.7589 9.126 30.5949 9.374C30.4349 9.622 30.2469 9.864 30.0309 10.1C29.8189 10.332 29.5929 10.568 29.3529 10.808L27.1689 13.04C27.3369 12.996 27.5049 12.96 27.6729 12.932C27.8449 12.904 28.0069 12.89 28.1589 12.89H30.8769Z" fill="white"/>
<rect x="15.5" y="0.5" width="19" height="19" rx="9.5" stroke="#F6F8FA"/>
</svg>
