<svg width="490" height="349" viewBox="0 0 490 349" fill="none" xmlns="http://www.w3.org/2000/svg">
<path d="M444.792 7.58565L298.953 155.914L185.846 270.952C171.298 285.748 156.751 270.952 156.751 270.952L76.7391 189.575C76.7391 189.575 62.1912 174.779 76.7391 159.983L156.751 78.6055C171.298 63.8097 185.846 78.6055 185.846 78.6055L210.94 104.129C221.124 114.485 237.489 114.485 247.309 104.129C257.493 93.7709 257.493 77.1259 247.309 67.1385L189.119 7.95514C186.573 5.36614 183.663 3.51615 180.754 2.40682C180.027 2.03649 179.299 1.66698 178.572 1.66698C176.026 0.927151 173.843 0.556828 171.298 0.556828C164.752 0.556828 158.205 3.14666 153.113 8.32466L7.63754 155.914C-2.54585 166.271 -2.54585 182.916 7.63754 192.904L153.477 341.232C163.661 351.589 180.027 351.589 189.846 341.232L335.686 192.904L448.793 77.8657C463.34 63.0698 477.888 77.8657 477.888 77.8657L557.902 159.243C557.902 159.243 572.447 174.039 557.902 188.835L477.888 270.212C463.341 285.008 448.793 270.212 448.793 270.212L422.971 243.95C412.788 233.592 396.422 233.592 386.602 243.95C376.418 254.306 376.418 270.952 386.602 280.939L445.157 340.492C455.339 350.849 471.706 350.849 481.525 340.492L627.361 192.164C637.547 181.807 637.547 165.161 627.361 155.174L481.525 6.84582C471.342 -2.40169 454.976 -2.40168 444.792 7.58565Z" fill="#006ADA" fill-opacity="0.13"/>
</svg>
