<svg width="46" height="46" viewBox="0 0 46 46" fill="none" xmlns="http://www.w3.org/2000/svg">
<g filter="url(#filter0_d_1153_3040)">
<rect x="2" y="1" width="42" height="42" rx="6" fill="white"/>
<path d="M17 17.5V13.75H29V17.5" stroke="#B5B5B5" stroke-width="1.5" stroke-linecap="round" stroke-linejoin="round"/>
<path d="M29 24.25H17V30.625H29V24.25Z" stroke="#B5B5B5" stroke-width="1.5" stroke-linecap="round" stroke-linejoin="round"/>
<path d="M17 26.5H13.625V19C13.625 18.175 14.3562 17.5 15.2469 17.5H30.7531C31.6437 17.5 32.375 18.175 32.375 19V26.5H29" stroke="#B5B5B5" stroke-width="1.5" stroke-linecap="round" stroke-linejoin="round"/>
<path d="M28.625 22C29.2463 22 29.75 21.4963 29.75 20.875C29.75 20.2537 29.2463 19.75 28.625 19.75C28.0037 19.75 27.5 20.2537 27.5 20.875C27.5 21.4963 28.0037 22 28.625 22Z" fill="#B5B5B5"/>
<rect x="2.5" y="1.5" width="41" height="41" rx="5.5" stroke="#D1D5DB"/>
</g>
<defs>
<filter id="filter0_d_1153_3040" x="0" y="0" width="46" height="46" filterUnits="userSpaceOnUse" color-interpolation-filters="sRGB">
<feFlood flood-opacity="0" result="BackgroundImageFix"/>
<feColorMatrix in="SourceAlpha" type="matrix" values="0 0 0 0 0 0 0 0 0 0 0 0 0 0 0 0 0 0 127 0" result="hardAlpha"/>
<feOffset dy="1"/>
<feGaussianBlur stdDeviation="1"/>
<feColorMatrix type="matrix" values="0 0 0 0 0 0 0 0 0 0 0 0 0 0 0 0 0 0 0.05 0"/>
<feBlend mode="normal" in2="BackgroundImageFix" result="effect1_dropShadow_1153_3040"/>
<feBlend mode="normal" in="SourceGraphic" in2="effect1_dropShadow_1153_3040" result="shape"/>
</filter>
</defs>
</svg>
